<mxfile host="app.diagrams.net" modified="2022-07-15T10:29:37.836Z" agent="5.0 (Windows NT 10.0; WOW64) AppleWebKit/537.36 (KHTML, like Gecko) Chrome/80.0.3987.87 Safari/537.36 SE 2.X MetaSr 1.0" etag="OwPikyvg-xWqP-EnoTTb" version="20.1.1" type="github">
  <diagram id="VmMP7uIes0QCA4hrSMzo" name="第 1 页">
    <mxGraphModel dx="1391" dy="778" grid="1" gridSize="10" guides="1" tooltips="1" connect="1" arrows="1" fold="1" page="1" pageScale="1" pageWidth="827" pageHeight="1169" math="0" shadow="0">
      <root>
        <mxCell id="0" />
        <mxCell id="1" parent="0" />
        <mxCell id="yy40MV7UM9Al4fItXvN1-3" value="流程图" style="rounded=0;whiteSpace=wrap;html=1;" vertex="1" parent="1">
          <mxGeometry x="330" y="100" width="120" height="60" as="geometry" />
        </mxCell>
      </root>
    </mxGraphModel>
  </diagram>
</mxfile>
